<svg id="Calque_1" data-name="Calque 1" xmlns="http://www.w3.org/2000/svg" viewBox="0 0 559.09 135.33"><defs><style>.cls-1{fill:#fff;}</style></defs><title>logo HiDen justre titre</title><path class="cls-1" d="M34.27,1037.16V925.23a7.86,7.86,0,0,1,2.37-5.69,8,8,0,0,1,11.42,0,7.78,7.78,0,0,1,2.41,5.69V973H99.83V925.23a7.86,7.86,0,0,1,2.37-5.69,8,8,0,0,1,11.47,0,8.11,8.11,0,0,1,2.36,5.88v111.74a7.69,7.69,0,0,1-2.46,5.69,7.82,7.82,0,0,1-5.64,2.41,7.74,7.74,0,0,1-5.78-2.36,7.87,7.87,0,0,1-2.32-5.74v-48H50.66v48a7.72,7.72,0,0,1-2.45,5.69,8.05,8.05,0,0,1-5.84,2.41,7.85,7.85,0,0,1-5.69-2.36A7.76,7.76,0,0,1,34.27,1037.16Z" transform="translate(-34.27 -910)"/><path class="cls-1" d="M219.29,1045.07H169.92a8.1,8.1,0,0,1,0-16.2h16.59V968.42H170.12a7.72,7.72,0,0,1-5.74-2.41,7.82,7.82,0,0,1-2.36-5.69,8.12,8.12,0,0,1,2.36-5.83,7.66,7.66,0,0,1,5.74-2.46H194.8a7.63,7.63,0,0,1,5.73,2.46,8.13,8.13,0,0,1,2.37,5.83v68.55h16.19a8.17,8.17,0,0,1,5.84,2.36,8,8,0,0,1,0,11.48A7.85,7.85,0,0,1,219.29,1045.07ZM186.31,910h8.49a8.07,8.07,0,0,1,8.1,8.1V925a8.11,8.11,0,0,1-2.37,5.83,7.63,7.63,0,0,1-5.73,2.46h-8.68a8.16,8.16,0,0,1-8.1-8.1l.19-7.13a8.07,8.07,0,0,1,8.1-8.1Z" transform="translate(-34.27 -910)"/><path class="cls-1" d="M281.08,917.13h32a22.46,22.46,0,0,1,12.2,4,24.87,24.87,0,0,1,8.72,9.55l16,32.39a38,38,0,0,1-.29,36.54l-16.1,32a24.66,24.66,0,0,1-8.87,9.88,23.4,23.4,0,0,1-12.92,3.71H280.89a7.74,7.74,0,0,1-5.74-2.41,7.86,7.86,0,0,1-2.36-5.69,8.15,8.15,0,0,1,2.36-5.83,7.67,7.67,0,0,1,5.74-2.46h8.49V933.52h-8.3a7.63,7.63,0,0,1-5.73-2.46,8.1,8.1,0,0,1-2.36-5.83,7.85,7.85,0,0,1,2.36-5.69A7.73,7.73,0,0,1,281.08,917.13Zm24.49,16.39v95.54l5.67,0q5.38,0,8.08-5.3l16-31.81q3-6.27,3-10.5a21.71,21.71,0,0,0-2.41-10l-16.58-33a8.88,8.88,0,0,0-8.48-4.92Z" transform="translate(-34.27 -910)"/><path class="cls-1" d="M474,982.69v19.57a8.23,8.23,0,0,1-8.1,8.1H408.63v4.72a8.75,8.75,0,0,0,3.57,7l4.73,4q3.85,3,7.32,3H465.9a7.85,7.85,0,0,1,5.69,2.37,7.91,7.91,0,0,1,0,11.42,7.82,7.82,0,0,1-5.64,2.41H423.19a25,25,0,0,1-8.92-1.78,23.7,23.7,0,0,1-6.89-3.71l-7.23-6.37a20.61,20.61,0,0,1-5.64-7.52,21,21,0,0,1-2.26-8.87V979.9c0-2.13.81-5,2.45-8.59a22.32,22.32,0,0,1,6.22-8.38l6.75-5.3a22.85,22.85,0,0,1,14.75-5.4h22.75q8.58,0,16.2,7.13l6.07,5.79Q474,971,474,982.69Zm-65.17-1.25V994H458V982.69a8.68,8.68,0,0,0-2.8-6.94l-4.72-4.15c-2.45-2-4.63-3-6.56-3H423.58a10.35,10.35,0,0,0-6.85,2.6L412,975.17A7.52,7.52,0,0,0,408.83,981.44Z" transform="translate(-34.27 -910)"/><path class="cls-1" d="M550,971l-22.13,14.36v51.77a8.1,8.1,0,0,1-16.19,0V960.32a8.12,8.12,0,0,1,2.36-5.83,7.86,7.86,0,0,1,11.42,0,8,8,0,0,1,2.41,5.83v5.4l14.78-9a30.68,30.68,0,0,1,16.8-4.73H567a23.2,23.2,0,0,1,16.71,6.85,24,24,0,0,1,7.43,16.87l2.22,61.41a7.45,7.45,0,0,1-2.32,5.69,7.85,7.85,0,0,1-5.78,2.41,8.07,8.07,0,0,1-5.59-2.17,7.83,7.83,0,0,1-2.51-5.93l-2.41-60.45q-.29-8.48-8.89-8.48h-7.92A14.58,14.58,0,0,0,550,971Z" transform="translate(-34.27 -910)"/><path class="cls-1" d="M312.37,917.3s25.21-1.06,30.61,8.52c.67,1.4,7,14.58,17.22,35.92a46.47,46.47,0,0,1,0,41.34s-13.7,25.66-18.76,34.55-29.61,7.63-29.61,7.63,10.86.14,20.85,0,13.33-7.38,13.33-7.38,5.55-10.62,17.52-34.06a47.32,47.32,0,0,0,0-43.57s-14.44-29.49-18-36c-.23-.41-.46-.79-.71-1.16-2.6-3.89-7.08-5.71-11.76-5.71Z" transform="translate(-34.27 -910)"/></svg>