<svg id="Calque_1" data-name="Calque 1" xmlns="http://www.w3.org/2000/svg" viewBox="0 0 759.31 820.19"><defs><style>.cls-1{fill:#fff;}.cls-2{fill:none;}.cls-3{fill:#cc321d;}</style></defs><title>logo HiDen sans texte</title><path class="cls-1" d="M194.73,543.5l34.75,160.19s3.15,4.19,21,27.33c43.11-106.17,108.25,77.76,108.25,77.76l48.37,49.42-3.15-83,39.92,30.46s3.15,35.76,4.23,70.45c0,0,33.61,83,47.3,111.4,92.48,6.31,153.18-77.79,153.18-77.79s5.52,23.14,9.71,47.3c112.48-10.5,138.75-107.21,138.75-107.21l29.45-135.59,52.53,47.3,75-218ZM426.56,757.89a20.23,20.23,0,1,1,20.24-20.21A20.21,20.21,0,0,1,426.56,757.89Z" transform="translate(-194.73 -167.63)"/><polygon class="cls-2" points="357.44 108.9 397.06 136.35 325.75 10.96 357.44 108.9"/><path class="cls-1" d="M883.28,379.94,865.4,397.82,711.93,239.11l-96.68,48.34L517.5,167.63l-178.7,164-58.87,32.57-70.63,132H942.21ZM552.17,276.53l-31.69-97.94L591.79,304Z" transform="translate(-194.73 -167.63)"/><polygon class="cls-3" points="573.3 191.4 537.76 116.15 601.34 199.72 573.3 191.4"/><path class="cls-3" d="M749.9,312.44,786.8,361l-16.27-4.83L749.9,312.44m-34.82-57.32,50.45,106.81,39.81,11.83L715.08,255.12Z" transform="translate(-194.73 -167.63)"/></svg>