<svg id="le_changement_de_profil" data-name="le changement de profil" xmlns="http://www.w3.org/2000/svg" viewBox="0 0 72.44 72.44"><defs><style>.cls-1{fill:none;stroke:#fff;stroke-miterlimit:10;stroke-width:2px;}.cls-2{fill:#fff;}</style></defs><title>changement_profil</title><circle class="cls-1" cx="36.22" cy="36.22" r="35.22"/><circle class="cls-2" cx="36.22" cy="20.95" r="12.26"/><path class="cls-2" d="M1841,897.53a35.17,35.17,0,0,0,59-1.63,34.26,34.26,0,0,0-59,1.63Zm33.46-5.79a7.76,7.76,0,0,0-.52,3,9.67,9.67,0,0,1,9.19-3,23.29,23.29,0,0,0-3.55,2.16s-1.93,3.84-5.09,1.94c-.42.22-.46.35-.46.35v6.73l1.15-.88s.41-.33.71-.11a1.21,1.21,0,0,0,.82.11s.58-.26.79,0-.51,1-.51,1l-5,3.67h-6.28l-1.88,1.06.27.59-3.72,2.12-1.62-4.17,3.58-2,.42,1,2.18-1.45a3.25,3.25,0,0,1,2.32-.62c1.54.09,4.35,0,4.35,0s-.14.89-1.69,1a21.08,21.08,0,0,1-2.31,0s-.84.44,0,.53,3.9,0,3.9,0l1.4-1v-9.45a6,6,0,0,1-3.93-4.85,11,11,0,0,0-4-6.36S1874.27,883.88,1874.41,891.74Z" transform="translate(-1833.68 -841.67)"/></svg>