<svg id="Calque_6" data-name="Calque 6" xmlns="http://www.w3.org/2000/svg" viewBox="0 0 67.75 78.33"><defs><style>.cls-1{fill:#fff;}</style></defs><title>mmi</title><path class="cls-1" d="M1693.2,882.33l-33.82,19.8V941l33.87,19.67L1727.13,941V902.13Zm21.59,37.42s-9,19.92-10.29,23c-1.67,1.46-2.5-.29-2.5-.29l-5.21-20.34s-1.75,2.09-2.71,3a1.41,1.41,0,0,1-1.95,0l-2.75-3s-4.42,17.42-5.13,20.34c-1.25,1.91-2.62,0-2.62,0s-5.25-11.63-10.09-22.75c-.75-2.88,2-1.84,2-1.84l9,7.17s-5.08-15.92-5.91-18.25c-.3-2.62,2.08-1.67,2.08-1.67l9.33,10.59s2.13-8,3.84-15.13a1.59,1.59,0,0,1,2.66,0l3.73,15.25s7-8.08,9.19-10.66c3-1.09,2.21,1.66,2.21,1.66l-6.13,18.34s6.84-5.59,9.21-7.42C1715.67,917,1714.79,919.75,1714.79,919.75Z" transform="translate(-1659.38 -882.33)"/><polygon class="cls-1" points="17 41.46 23.08 55.13 25.04 47.79 17 41.46"/><polygon class="cls-1" points="22.08 30.29 26.21 42.79 27.83 37 22.08 30.29"/><polygon class="cls-1" points="33.79 24.63 30.92 36.08 33.79 39.46 36.63 36.13 33.79 24.63"/><polygon class="cls-1" points="39.71 36.92 41.13 42.58 45.33 30.29 39.71 36.92"/><polygon class="cls-1" points="42.52 47.67 50.42 41.25 44.38 55.13 42.52 47.67"/></svg>