<svg id="Le_profil_caché" data-name="Le profil caché" xmlns="http://www.w3.org/2000/svg" viewBox="0 0 71.14 71.14"><defs><style>.cls-1,.cls-3{fill:none;stroke:#fff;stroke-miterlimit:10;}.cls-1{stroke-width:2px;}.cls-2{fill:#fff;}</style></defs><title>profil_caché </title><circle class="cls-1" cx="35.57" cy="35.57" r="34.57"/><path class="cls-2" d="M1625.91,848.54v30.23c-2.43-.13-4.84-.18-7.27-.09-.55-.23-1.11-.44-1.68-.64-1.17-.41-2.38-.72-3.54-1.13s-2.36-1-3.51-1.5a20.15,20.15,0,0,0-3.05-1.6,1.08,1.08,0,0,0-.23-.31c-1.47-1.39-3.09-2.62-4.64-3.94a17.66,17.66,0,0,0-1.49-1.63c-.55-.59-1.12-1.18-1.69-1.77l-.65-.66c-1-1.39-1.83-2.88-2.71-4.33C1602.34,853.51,1613.42,848.54,1625.91,848.54Z" transform="translate(-1590.34 -809.45)"/><path class="cls-2" d="M1625.91,818.24V842.3h0a12,12,0,0,1,0-24.06Z" transform="translate(-1590.34 -809.45)"/><path class="cls-3" d="M1626.31,819.73A9.18,9.18,0,0,1,1635,827c1.7,7.27-4.35,8.7-4.35,8.7l-.41,5.23-4.34.62Z" transform="translate(-1590.34 -809.45)"/><path class="cls-3" d="M1625.91,850.26s17.68,1.12,20.44,2.34.71,2.09,0,2-17.75-2.39-20.81-2.16" transform="translate(-1590.34 -809.45)"/><path class="cls-3" d="M1621.14,855.63s17.68,1.12,20.44,2.34.71,2.09,0,2-17.75-2.39-20.81-2.16" transform="translate(-1590.34 -809.45)"/><path class="cls-3" d="M1620.26,860.45s17.68,1.12,20.43,2.35.72,2.09,0,2-17.74-2.38-20.8-2.16" transform="translate(-1590.34 -809.45)"/><path class="cls-3" d="M1618.51,865.2s17.69,1.12,20.44,2.35.71,2.09,0,2-17.75-2.38-20.8-2.16" transform="translate(-1590.34 -809.45)"/><path class="cls-3" d="M1616.2,870.11s17.68,1.12,20.44,2.34.71,2.09,0,2-17.75-2.39-20.81-2.16" transform="translate(-1590.34 -809.45)"/><path class="cls-3" d="M1648.74,856.28a1.33,1.33,0,0,0-1.9,1.08c-.34,1.74,1.9,1.67,1.9,1.67l3.67,8.19a10.19,10.19,0,0,0,1.62-2.09c-.36-.53-3.28-6.75-3.28-6.75s.92-1.12.2-1.83C1650.42,855.8,1649.52,855.05,1648.74,856.28Z" transform="translate(-1590.34 -809.45)"/></svg>