<svg id="le_social_network" data-name="le social network" xmlns="http://www.w3.org/2000/svg" viewBox="0 0 72.44 72.44"><defs><style>.cls-1{fill:none;stroke-width:2px;}.cls-1,.cls-3,.cls-4{stroke:#fff;stroke-miterlimit:10;}.cls-2,.cls-3,.cls-4{fill:#fff;}.cls-3{stroke-width:0.75px;}</style></defs><title>film</title><circle class="cls-1" cx="36.22" cy="36.22" r="35.22"/><circle class="cls-2" cx="36.21" cy="21.19" r="12.26"/><path class="cls-3" d="M1751,848c-12.73,0-24,5.07-31,12.87.89,1.48,1.75,3,2.76,4.41l.66.68c.58.6,1.16,1.2,1.72,1.8a20.05,20.05,0,0,1,1.53,1.66c1.57,1.34,3.22,2.59,4.72,4a1.08,1.08,0,0,1,.23.31,20.46,20.46,0,0,1,3.11,1.63c1.17.55,2.35,1.09,3.57,1.53s2.42.73,3.61,1.15c.58.2,1.15.42,1.72.65,2.56-.1,5.12,0,7.68.11,1.34.08,2.68.19,4,.3,1-.26,2-.53,3-.75a8.46,8.46,0,0,1,1-.46c1.35-.52,2.77-.87,4.11-1.43,2-.85,4-1.68,6-2.62a1.17,1.17,0,0,1,.21-.32,22,22,0,0,1,4.57-3.31c.29-.19.57-.38.83-.58a1.09,1.09,0,0,1,0-.53,5.36,5.36,0,0,1,2-2.56,1.06,1.06,0,0,1,1.22-.86l.7-.47a7.71,7.71,0,0,0,3.12-4.38C1775,853,1763.68,848,1751,848Zm15.53,26.38s-13.92,8-31.06,0V859.58h31.06Z" transform="translate(-1714.75 -808.15)"/><path class="cls-4" d="M1738.48,829.8s-1.39-1-.83-2.15c-.76-.9-.9-1.91-.31-2.32-.87-.87-1.35-2.87.55-3.33a2.14,2.14,0,0,1,1.49-2c0-.55.52-2.63,2.22-2.6.55-.34.86-2,3.32-1.35,1-1.07,2.36-2.21,4.33-.86,2.63-1.46,3.57-1,4.74,0,2.15-.25,3.19-.66,4.33,1.45,2.43.42,3.19.69,3.33,2.39.66.83,1.66.42,1.38,2.29.47,1.24,1.15,1.21.63,2.49a2.14,2.14,0,0,1,.38,2.7,1.42,1.42,0,0,1-.31,2.11,2.84,2.84,0,0,1-1.42.7Z" transform="translate(-1714.75 -808.15)"/><path class="cls-2" d="M1751.45,866.4a1.07,1.07,0,0,1-.49-.12s-1.52-.6-2.09.36a3.73,3.73,0,0,0,.76,4.14,1.24,1.24,0,0,0,1.33.07,1.5,1.5,0,0,1,.49-.07Z" transform="translate(-1714.75 -808.15)"/><path class="cls-2" d="M1752.74,868.92a1.92,1.92,0,0,1,1.14-1.75,2.74,2.74,0,0,0-.23-.53c-.57-1-2.08-.36-2.08-.36a1.15,1.15,0,0,1-.5.12v4.38a1.59,1.59,0,0,1,.5.07,1.22,1.22,0,0,0,1.32-.07,1.62,1.62,0,0,0,.45-.48A1.9,1.9,0,0,1,1752.74,868.92Z" transform="translate(-1714.75 -808.15)"/><path class="cls-2" d="M1751.19,865.58a1.39,1.39,0,0,1,1.25-1.29C1752.36,865.24,1751.19,865.58,1751.19,865.58Z" transform="translate(-1714.75 -808.15)"/></svg>