<svg id="contact" xmlns="http://www.w3.org/2000/svg" viewBox="0 0 72.44 72.44"><defs><style>.cls-1,.cls-3{fill:#fff;}.cls-1,.cls-2,.cls-3{stroke:#fff;stroke-miterlimit:10;}.cls-1{stroke-width:2px;}.cls-2{fill:none;}.cls-2,.cls-3{stroke-width:3px;}</style></defs><title>menu6</title><path class="cls-1" d="M1829.68,847.31a35.22,35.22,0,1,0,35.22,35.22A35.22,35.22,0,0,0,1829.68,847.31Zm21.37,52.23H1808.3a4,4,0,0,1-4-4v-26a4,4,0,0,1,4-4h42.75a4,4,0,0,1,4,4v26A4,4,0,0,1,1851.05,899.54Z" transform="translate(-1793.46 -846.31)"/><polyline class="cls-2" points="10.17 23.19 36.22 37.94 62 23.96"/><line class="cls-3" x1="10.17" y1="50.35" x2="28.96" y2="33.83"/><line class="cls-3" x1="62" y1="50.35" x2="44.32" y2="34.69"/></svg>